<svg width="32" height="32" viewBox="0 0 32 32" fill="none" xmlns="http://www.w3.org/2000/svg">
<g clip-path="url(#clip0_2064_4299)">
<path fill-rule="evenodd" clip-rule="evenodd" d="M3.55556 32H28.4444C30.4081 32 32 30.4081 32 28.4444V3.55556C32 1.59188 30.4081 0 28.4444 0H3.55556C1.59188 0 0 1.59188 0 3.55556V28.4444C0 30.4081 1.59188 32 3.55556 32Z" fill="black"/>
<path fill-rule="evenodd" clip-rule="evenodd" d="M27.5554 27.5556H22.8068V19.4676C22.8068 17.2501 21.9642 16.0109 20.2091 16.0109C18.2997 16.0109 17.3021 17.3005 17.3021 19.4676V27.5556H12.7258V12.1482H17.3021V14.2235C17.3021 14.2235 18.6781 11.6774 21.9477 11.6774C25.2157 11.6774 27.5554 13.6731 27.5554 17.8006V27.5556ZM7.26627 10.1307C5.70747 10.1307 4.44434 8.85764 4.44434 7.28757C4.44434 5.71751 5.70747 4.44446 7.26627 4.44446C8.82506 4.44446 10.0874 5.71751 10.0874 7.28757C10.0874 8.85764 8.82506 10.1307 7.26627 10.1307ZM4.90325 27.5556H9.67518V12.1482H4.90325V27.5556Z" fill="white"/>
</g>
<defs>
<clipPath id="clip0_2064_4299">
<rect width="32" height="32" fill="white"/>
</clipPath>
</defs>
</svg>
