<svg width="48" height="48" viewBox="0 0 48 48" fill="none" xmlns="http://www.w3.org/2000/svg">
<path d="M22.4249 0.012917C22.3216 0.0222998 21.9932 0.0551395 21.6977 0.0785965C14.8811 0.693169 8.49611 4.37122 4.45213 10.0243C2.20026 13.1676 0.760006 16.733 0.215804 20.5096C0.023457 21.8279 0 22.2173 0 24.0047C0 25.7921 0.023457 26.1815 0.215804 27.4998C1.52001 36.512 7.93315 44.0839 16.631 46.8893C18.1885 47.3913 19.8305 47.7338 21.6977 47.9402C22.4249 48.0199 25.5681 48.0199 26.2953 47.9402C29.5182 47.5836 32.2486 46.7861 34.9415 45.4115C35.3543 45.2004 35.4341 45.1441 35.3778 45.0972C35.3403 45.0691 33.581 42.7093 31.4699 39.8569L27.6323 34.6729L22.8236 27.5561C20.1777 23.6435 18.0009 20.4439 17.9821 20.4439C17.9633 20.4392 17.9446 23.6012 17.9352 27.4623C17.9211 34.2226 17.9164 34.4947 17.832 34.6542C17.71 34.884 17.6162 34.9779 17.4191 35.0811C17.269 35.1561 17.1377 35.1702 16.4293 35.1702H15.6176L15.4018 35.0342C15.2611 34.945 15.1579 34.8277 15.0875 34.6917L14.989 34.4806L14.9984 25.0743L15.0125 15.6634L15.1579 15.4804C15.233 15.3819 15.3925 15.2553 15.5051 15.1943C15.6974 15.1004 15.7725 15.0911 16.5841 15.0911C17.5411 15.0911 17.7006 15.1286 17.9493 15.4007C18.0196 15.4757 20.6234 19.3978 23.7384 24.122C26.8535 28.8462 31.1133 35.2969 33.2057 38.4636L37.0057 44.2199L37.1981 44.0932C38.901 42.9861 40.7025 41.4098 42.1287 39.7678C45.164 36.2821 47.1203 32.0317 47.7771 27.4998C47.9695 26.1815 47.9929 25.7921 47.9929 24.0047C47.9929 22.2173 47.9695 21.8279 47.7771 20.5096C46.4729 11.4974 40.0598 3.92554 31.362 1.12009C29.8279 0.622798 28.1953 0.280326 26.3656 0.0739051C25.9153 0.0269911 22.8142 -0.0246142 22.4249 0.012917ZM32.2486 14.5281C32.4738 14.6407 32.6568 14.8565 32.7225 15.0817C32.76 15.2036 32.7694 17.8121 32.76 23.6904L32.7459 32.1255L31.2587 29.8455L29.7669 27.5655V21.4338C29.7669 17.4696 29.7857 15.2412 29.8138 15.1333C29.8889 14.8706 30.0531 14.6641 30.2782 14.5422C30.4706 14.4436 30.541 14.4343 31.2775 14.4343C31.9718 14.4343 32.0938 14.4436 32.2486 14.5281Z" fill="black"/>
</svg>
