<svg width="1078" height="579" viewBox="0 0 1078 579" fill="none" xmlns="http://www.w3.org/2000/svg">
<path d="M-159.5 351.39L-159.4 349.11L376.445 356.634L-159.3 341.585V339.305L376.645 354.354L-159.101 331.781L-159.001 329.501L376.545 352.074L-158.702 322.09L-158.602 319.81L376.745 349.794L-158.203 312.285L-158.103 310.005L376.845 347.514L-157.704 302.481L-157.504 300.201L376.944 345.234L-157.005 292.676L-156.805 290.396L377.144 342.954L-156.206 282.985L-156.007 280.705L377.443 340.673L-155.308 273.181L-155.109 271.015L377.543 338.393L-154.41 263.49L-154.111 261.21L377.843 336.227L-153.312 253.799L-153.013 251.519L378.142 333.947L-152.115 244.109L-151.815 241.829L378.342 331.667L-150.817 234.418L-150.518 232.138L378.741 329.387L-149.42 224.727L-149.021 222.447L378.94 327.106L-147.923 215.151L-147.524 212.871L379.439 324.94L-146.226 205.46L-145.927 203.294L379.739 322.66L-144.529 195.883L-144.13 193.603L380.238 320.494L-142.733 186.307L-142.334 184.141L380.637 318.214L-140.837 176.73L-140.338 174.564L381.136 316.048L-138.841 167.268L-138.342 164.987L381.535 313.768L-136.645 157.805L-136.146 155.525L382.034 311.601L-134.449 148.342L-133.95 146.062L382.633 309.435L-132.154 138.88L-131.555 136.713L383.132 307.155L-129.659 129.531L-129.16 127.251L383.731 304.989L-127.164 120.068L-126.565 117.902L384.43 302.937L-124.569 110.834L-123.97 108.667L385.028 300.657L-121.774 101.485L-121.175 99.3188L385.627 298.491L-118.98 92.2504L-118.281 90.0842L386.226 296.324L-116.085 83.0157L-115.387 80.9636L387.025 294.272L-113.091 73.8951L-112.293 71.729L387.623 292.106L-109.898 64.7745L-109.199 62.6083L388.522 290.054L-106.704 55.6539L-105.905 53.6017L389.22 287.888L-103.41 46.6472L-102.612 44.5951L390.019 285.836L-100.017 37.6406L-99.1188 35.5885L390.917 283.783L-96.4241 28.748L-95.6257 26.6959L391.616 281.617L-92.8312 19.8554L-92.0328 17.8032L392.514 279.565L-89.1385 11.0768L-88.2402 9.02466L393.412 277.513L-85.3459 2.29821L-84.4477 0.246048L394.21 275.461L-81.4536 -6.48041L-80.5554 -8.53253L395.308 273.523L-77.4614 -15.145L-76.5632 -17.1971L396.206 271.471L-73.3695 -23.8096L-72.4713 -25.7477L397.005 269.419L-69.2775 -32.3602L-68.2795 -34.2983L398.103 267.48L-64.986 -40.7968L-63.988 -42.7349L399.201 265.542L-60.5946 -49.2333L-59.5966 -51.1715L399.999 263.49L-56.2033 -57.6699L-55.1054 -59.6081L401.197 261.552L-51.6123 -65.9925L-50.6143 -67.8166L402.295 259.728L-47.0213 -74.201L-45.9235 -76.1392L403.392 257.79L-42.3306 -82.4096L-41.2327 -84.2338L404.49 255.852L-37.54 -90.5042L-36.3424 -92.3283L405.488 253.913L-32.6496 -98.4847L-31.452 -100.423L406.786 252.203L-27.6594 -106.465L-26.4618 -108.403L407.883 250.265L-22.5695 -114.446L-21.3718 -116.27L409.081 248.441L-17.4795 -122.312L-16.2818 -124.136L410.279 246.617L-12.2897 -130.065L-10.9922 -131.889L411.476 244.793L-6.9003 -137.703L-5.70264 -139.528L412.774 243.083L-1.51089 -145.342L-0.313254 -147.052L414.071 241.373L3.87849 -152.866L5.17594 -154.577L415.269 239.434L9.4675 -160.391L10.765 -162.101L416.666 237.838L15.0565 -167.687L16.4538 -169.398L417.864 236.128L20.8451 -175.098L22.1426 -176.694L419.261 234.418L26.6337 -182.28L27.9312 -183.991L420.658 232.822L32.4223 -189.463L33.8196 -191.059L422.056 231.112L38.4105 -196.417L39.8078 -198.128L423.453 229.516L44.3988 -203.486L45.796 -205.082L424.75 227.806L50.4868 -210.326L51.9838 -211.922L426.247 226.324L56.6746 -217.167L58.0719 -218.763L427.645 224.727L62.8624 -223.893L64.3595 -225.375L429.241 223.245L69.2499 -230.506L70.7469 -231.988L430.739 221.649L75.6373 -237.004L77.1343 -238.6L432.036 219.939L82.0247 -243.503L83.5218 -244.985L433.633 218.685L88.6118 -249.887L90.1088 -251.369L435.13 217.089L95.1988 -256.158L96.6959 -257.526L436.727 215.721L101.786 -262.314L103.383 -263.682L438.423 214.467L108.572 -268.356L110.07 -269.838L439.721 212.757L115.259 -274.399L116.856 -275.767L441.517 211.617L122.146 -280.213L123.743 -281.581L443.014 210.134L129.032 -286.028L130.729 -287.396L444.711 208.88L136.018 -291.728L137.715 -293.096L446.308 207.512L143.105 -297.314L144.701 -298.682L447.905 206.144L150.191 -302.901L151.787 -304.155L449.601 205.004L157.277 -308.259L158.973 -309.513L451.198 203.522L164.562 -313.617L166.159 -314.758L452.995 202.496L171.748 -318.748L173.445 -320.002L454.691 201.356L179.134 -323.878L180.83 -325.018L456.388 200.102L186.519 -328.895L188.216 -330.035L458.085 198.962L193.905 -333.797L195.601 -334.937L459.781 197.822L201.39 -338.585L203.086 -339.611L461.578 196.682L208.875 -343.259L210.672 -344.286L463.374 195.769L216.46 -347.82L218.257 -348.846L465.071 194.515L224.145 -352.266L225.942 -353.292L466.967 193.603L231.83 -356.598L233.626 -357.624L468.664 192.463L239.515 -360.931L241.311 -361.843L470.46 191.551L247.299 -365.035L249.096 -365.947L472.357 190.753L255.084 -369.025L256.881 -370.051L474.153 189.727L262.969 -373.016L264.765 -373.928L475.95 188.701L270.853 -376.778L272.65 -377.69L477.746 187.903L278.738 -380.54L280.634 -381.338L479.742 187.219L286.722 -384.074L288.618 -384.986L481.439 186.079L294.806 -387.609L296.602 -388.407L483.435 185.509L302.79 -390.915L304.687 -391.713L485.331 184.825L310.874 -394.221L312.771 -395.019L487.227 184.027L319.058 -397.413L320.955 -398.097L489.024 183.229L327.142 -400.377L329.039 -401.061L490.92 182.545L335.326 -403.342L337.322 -403.912L492.916 181.975L343.61 -406.078L345.506 -406.762L494.812 181.29L351.794 -408.814L353.79 -409.384L496.709 180.606L360.078 -411.322L362.074 -411.892L498.705 180.264L368.361 -413.83L370.357 -414.4L500.501 179.466L376.745 -416.111L378.641 -416.681L502.497 178.782L385.128 -418.391L387.025 -418.847L504.493 178.554L393.412 -420.443L395.408 -420.899L506.39 177.984L401.895 -422.495L403.792 -422.837L508.386 177.642L410.279 -424.319L412.275 -424.775L510.382 177.186L418.662 -426.029L420.658 -426.485L512.278 176.616L427.146 -427.739L429.142 -428.081L514.274 176.502L435.629 -429.221L437.625 -429.563L516.27 176.16L444.112 -430.589L446.108 -430.932L518.266 175.818L452.595 -431.844L454.592 -432.186L520.163 175.476L461.079 -432.984L463.075 -433.212L522.159 175.362L469.662 -434.01L471.658 -434.238L524.155 175.02L478.145 -434.922L480.141 -435.15L526.151 174.906L486.728 -435.72L488.724 -435.948L528.147 174.564L495.311 -436.404L497.307 -436.518L530.143 174.678L503.895 -436.974L505.891 -437.088L532.139 174.336L512.378 -437.43L514.374 -437.544L534.135 174.222L520.961 -437.772H522.957L536.131 174.45L529.544 -437.886L531.54 -438L538.127 174.222V-438H-159.5V358.915H376.545L-159.5 351.39Z" fill="white"/>
<path d="M1237.75 368.719L1237.65 371L701.705 363.475L1237.55 378.524V380.804L701.805 365.755L1237.35 388.329L1237.25 390.609L701.605 368.035L1236.95 398.019L1236.85 400.299L701.605 370.315L1236.55 407.824L1236.35 410.104L701.406 372.596L1235.95 417.629L1235.75 419.909L701.206 374.876L1235.26 427.433L1235.06 429.714L701.106 377.156L1234.46 437.124L1234.26 439.404L700.907 379.436L1233.66 446.929L1233.36 449.095L700.607 381.716L1232.66 456.619L1232.36 458.9L700.408 383.882L1231.56 466.31L1231.26 468.59L700.208 386.163L1230.36 476.001L1230.07 478.281L699.909 388.443L1229.07 485.691L1228.77 487.972L699.509 390.723L1227.67 495.382L1227.27 497.662L699.41 393.003L1226.17 504.959L1225.77 507.239L698.711 395.169L1224.48 514.649L1224.18 516.815L698.511 397.449L1222.78 524.226L1222.38 526.506L697.913 399.615L1220.98 533.803L1220.58 535.969L697.613 401.896L1219.09 543.379L1218.59 545.545L697.114 404.062L1217.09 552.842L1216.59 555.122L696.715 406.342L1214.9 562.305L1214.4 564.585L696.116 408.508L1212.7 571.767L1212.2 574.047L695.717 410.674L1210.4 581.23L1209.81 583.396L694.918 412.84L1208.01 590.579L1207.41 592.859L694.519 415.121L1205.41 600.041L1204.82 602.207L693.721 417.173L1202.82 609.276L1202.22 611.442L693.322 419.453L1200.12 618.624L1199.43 620.791L692.523 421.505L1197.23 627.859L1196.53 630.025L691.924 423.671L1194.34 637.094L1193.64 639.146L691.226 425.837L1191.34 646.214L1190.54 648.381L690.527 428.003L1188.15 655.335L1187.45 657.501L689.828 430.056L1184.95 664.456L1184.16 666.508L688.93 432.222L1181.66 673.462L1180.86 675.514L688.232 434.274L1178.27 682.469L1177.37 684.521L687.333 436.326L1174.67 691.361L1173.88 693.414L686.635 438.492L1171.08 700.254L1170.28 702.306L685.737 440.544L1167.39 709.033L1166.49 711.085L684.738 442.482L1163.6 717.811L1162.7 719.863L683.94 444.649L1159.7 726.59L1158.81 728.642L683.042 446.701L1155.71 735.254L1154.81 737.307L682.144 448.639L1151.62 743.919L1150.72 745.857L681.146 450.691L1147.53 752.47L1146.53 754.408L680.247 452.629L1143.24 760.906L1142.24 762.844L679.149 454.567L1138.84 769.343L1137.85 771.281L678.151 456.619L1134.45 777.779L1133.36 779.717L677.054 458.558L1129.86 786.102L1128.86 787.926L675.856 460.382L1125.27 794.311L1124.17 796.249L674.958 462.32L1120.58 802.519L1119.48 804.343L673.86 464.258L1115.79 810.614L1114.69 812.438L672.562 465.968L1110.9 818.708L1109.7 820.532L671.564 468.02L1105.91 826.689L1104.71 828.513L670.467 469.844L1100.82 834.555L1099.72 836.379L669.069 471.554L1095.73 842.422L1094.53 844.246L668.171 473.607L1090.54 850.174L1089.24 851.885L666.674 475.203L1085.15 857.813L1083.95 859.637L665.476 477.027L1079.76 865.451L1078.56 867.162L664.279 478.851L1074.37 872.976L1073.07 874.686L662.981 480.561L1068.78 880.5L1067.49 882.211L661.684 482.271L1063.19 887.797L1061.8 889.507L660.287 483.981L1057.41 895.093L1056.11 896.804L658.989 485.691L1051.62 902.39L1050.32 904.1L657.492 487.173L1045.83 909.572L1044.43 911.169L656.294 489.112L1039.84 916.527L1038.44 918.237L654.897 490.708L1033.85 923.595L1032.45 925.192L653.3 492.076L1027.76 930.436L1026.27 932.032L652.202 494.014L1021.58 937.276L1020.18 938.872L650.406 495.268L1015.39 944.003L1013.89 945.485L649.109 496.864L1009 950.615L1007.5 952.097L647.711 498.574L1002.61 957.114L1001.12 958.71L646.015 499.828L996.226 963.612L994.728 965.094L644.617 501.538L989.638 969.997L988.141 971.479L643.22 503.135L983.151 976.267L981.554 977.635L641.523 504.275L976.464 982.423L974.868 983.791L639.927 505.757L969.678 988.466L968.181 989.948L638.43 507.239L962.991 994.508L961.394 995.876L636.833 508.721L956.104 1000.32L954.508 1001.69L635.236 509.975L949.218 1006.14L947.521 1007.51L633.639 511.457L942.232 1011.84L940.635 1013.21L631.843 512.483L935.146 1017.42L933.549 1018.79L630.346 513.851L928.06 1023.01L926.463 1024.26L628.649 515.105L920.974 1028.37L919.277 1029.62L626.952 516.359L913.688 1033.73L912.091 1034.87L625.355 517.728L906.502 1038.86L904.805 1040.11L623.459 518.64L899.117 1043.99L897.42 1045.13L621.962 520.122L891.731 1049L890.034 1050.14L620.166 521.262L884.346 1053.91L882.649 1055.05L618.469 522.288L876.86 1058.69L875.164 1059.72L616.672 523.428L869.375 1063.37L867.579 1064.4L614.876 524.34L861.79 1067.93L859.994 1068.96L613.179 525.594L854.105 1072.38L852.309 1073.4L611.283 526.506L846.42 1076.71L844.624 1077.73L609.586 527.646L838.735 1081.04L836.939 1081.95L607.79 528.444L830.951 1085.14L829.154 1086.06L605.894 529.356L823.166 1089.13L821.37 1090.16L604.097 530.382L815.282 1093.13L813.485 1094.04L602.201 531.066L807.397 1096.89L805.601 1097.8L600.604 532.435L799.513 1100.65L797.616 1101.45L598.508 532.891L791.528 1104.18L789.632 1105.1L596.712 533.803L783.444 1107.72L781.648 1108.52L594.915 534.829L775.46 1111.02L773.564 1111.82L592.919 535.171L767.376 1114.33L765.48 1115.01L591.023 536.083L759.192 1117.52L757.296 1118.21L589.226 536.881L751.108 1120.49L749.212 1121.17L587.23 537.337L742.924 1123.45L740.928 1124.14L585.434 538.249L734.64 1126.19L732.744 1126.87L583.438 538.819L726.456 1128.92L724.46 1129.49L581.542 539.503L718.173 1131.43L716.177 1132L579.545 539.845L709.889 1133.94L707.893 1134.51L577.649 540.643L701.505 1136.22L699.609 1136.79L575.753 541.213L693.122 1138.5L691.226 1138.96L573.757 541.555L684.838 1140.55L682.842 1141.01L571.861 542.011L676.355 1142.6L674.459 1142.95L569.865 542.239L667.971 1144.43L665.975 1144.88L567.968 543.151L659.588 1146.14L657.592 1146.59L565.972 543.493L651.105 1147.85L649.109 1148.19L563.976 543.607L642.621 1149.33L640.625 1149.67L561.98 543.949L634.138 1150.7L632.142 1151.04L559.984 544.291L625.655 1151.95L623.659 1152.3L558.088 544.633L617.171 1153.09L615.175 1153.32L556.092 544.861L608.588 1154.12L606.592 1154.35L554.096 544.861L600.105 1155.03L598.109 1155.26L552.099 545.203L591.522 1155.83L589.526 1156.06L550.103 545.431L582.939 1156.51L580.943 1156.63L548.107 545.545L574.356 1157.08L572.36 1157.2L546.111 545.659L565.872 1157.54L563.876 1157.65L544.115 546.001L557.289 1157.88H555.293L542.119 545.659L548.706 1158L546.71 1158.11L540.123 545.887V1158.11H1237.75V361.195H701.805L1237.75 368.719Z" fill="white"/>
<path d="M540.123 -438V174.336L546.71 -438L548.706 -437.886L542.119 174.336L555.293 -437.772H557.289L544.115 174.336L563.876 -437.544L565.872 -437.43L546.111 174.336L572.36 -437.088L574.356 -436.974L548.107 174.564L580.943 -436.518L582.939 -436.404L550.103 174.792L589.526 -435.948L591.522 -435.72L552.099 174.792L598.109 -435.15L600.105 -434.922L554.096 175.02L606.592 -434.238L608.588 -434.01L556.092 175.248L615.175 -433.212L617.171 -432.984L558.088 175.476L623.659 -432.186L625.655 -431.844L559.984 175.818L632.142 -430.932L634.138 -430.589L561.98 176.046L640.625 -429.563L642.621 -429.221L563.976 176.502L649.109 -428.081L651.105 -427.739L565.972 176.73L657.592 -426.485L659.588 -426.029L567.968 176.958L665.975 -424.775L667.971 -424.319L569.865 177.756L674.459 -422.837L676.355 -422.495L571.861 178.098L682.842 -420.899L684.838 -420.443L573.757 178.44L691.226 -418.847L693.122 -418.391L575.753 179.01L699.609 -416.681L701.505 -416.111L577.649 179.58L707.893 -414.4L709.889 -413.83L579.645 180.036L716.177 -411.892L718.173 -411.322L581.542 180.72L724.46 -409.384L726.456 -408.814L583.438 181.29L732.744 -406.762L734.64 -406.078L585.334 182.089L740.928 -403.912L742.924 -403.342L587.33 182.431L749.212 -401.061L751.108 -400.377L589.127 183.457L757.296 -398.097L759.192 -397.413L591.023 184.027L765.48 -395.019L767.376 -394.221L592.919 184.825L773.564 -391.713L775.46 -390.915L594.915 185.395L781.648 -388.407L783.444 -387.609L596.712 186.193L789.632 -384.986L791.528 -384.074L598.608 187.105L797.616 -381.338L799.513 -380.54L600.404 188.017L805.601 -377.69L807.397 -376.778L602.301 188.701L813.485 -373.928L815.282 -373.016L604.097 189.841L821.37 -370.051L823.166 -369.025L605.894 190.753L829.154 -365.947L830.951 -365.035L607.89 191.437L836.939 -361.843L838.735 -360.931L609.586 192.577L844.624 -357.624L846.42 -356.598L611.283 193.717L852.309 -353.292L854.105 -352.266L613.179 194.515L859.994 -348.846L861.79 -347.82L614.876 195.769L867.579 -344.286L869.375 -343.259L616.672 196.796L875.164 -339.611L876.86 -338.585L618.469 197.822L882.649 -334.937L884.346 -333.797L620.166 198.848L890.034 -330.035L891.731 -328.895L621.962 199.988L897.42 -325.018L899.117 -323.878L623.559 201.242L904.805 -320.002L906.502 -318.748L625.256 202.61L912.091 -314.758L913.688 -313.617L626.952 203.75L919.277 -309.513L920.974 -308.259L628.649 204.89L926.463 -304.155L928.06 -302.901L630.346 206.144L933.549 -298.682L935.146 -297.314L631.843 207.626L940.635 -293.096L942.232 -291.728L633.639 208.766L947.521 -287.396L949.218 -286.028L635.136 210.248L954.508 -281.581L956.104 -280.213L636.833 211.503L961.394 -275.767L962.991 -274.399L638.33 212.985L968.181 -269.838L969.778 -268.356L640.026 214.239L974.868 -263.682L976.464 -262.314L641.424 215.835L981.554 -257.526L983.151 -256.158L643.22 216.975L988.141 -251.369L989.738 -249.887L644.717 218.457L994.728 -244.985L996.226 -243.503L646.114 220.167L1001.12 -238.6L1002.61 -237.004L647.512 221.763L1007.5 -231.988L1009 -230.506L649.109 223.131L1013.89 -225.375L1015.39 -223.893L650.606 224.613L1020.18 -218.763L1021.58 -217.167L651.903 226.324L1026.37 -211.922L1027.76 -210.326L653.4 227.92L1032.45 -205.082L1033.85 -203.486L654.897 229.402L1038.44 -198.128L1039.84 -196.417L656.095 231.226L1044.43 -191.059L1045.83 -189.463L657.692 232.708L1050.32 -183.991L1051.62 -182.28L658.989 234.418L1056.11 -176.694L1057.41 -175.098L660.187 236.242L1061.8 -169.398L1063.19 -167.687L661.684 237.838L1067.49 -162.101L1068.78 -160.391L662.981 239.548L1073.07 -154.577L1074.37 -152.866L664.279 241.259L1078.56 -147.052L1079.76 -145.342L665.476 243.083L1083.95 -139.528L1085.15 -137.703L666.774 244.793L1089.24 -131.889L1090.54 -130.065L667.971 246.617L1094.53 -124.136L1095.73 -122.312L669.169 248.441L1099.72 -116.27L1100.82 -114.446L670.467 250.265L1104.71 -108.403L1105.91 -106.465L671.564 252.089L1109.7 -100.423L1110.9 -98.4847L672.662 254.027L1114.69 -92.3283L1115.79 -90.5042L673.86 255.852L1119.48 -84.2338L1120.58 -82.4096L674.858 257.79L1124.17 -76.1392L1125.27 -74.201L676.056 259.614L1128.86 -67.8166L1129.86 -65.9925L677.054 261.666L1133.36 -59.6081L1134.45 -57.6699L678.151 263.49L1137.85 -51.1715L1138.84 -49.2333L679.05 265.542L1142.24 -42.7349L1143.24 -40.7968L680.247 267.366L1146.53 -34.2983L1147.53 -32.3602L681.146 269.419L1150.72 -25.7477L1151.62 -23.8096L682.044 271.471L1154.81 -17.1971L1155.71 -15.145L683.042 273.409L1158.81 -8.53253L1159.7 -6.48041L683.94 275.461L1162.7 0.246048L1163.6 2.29821L684.838 277.513L1166.49 9.02466L1167.39 11.0768L685.836 279.565L1170.28 17.8032L1171.08 19.8554L686.535 281.731L1173.88 26.6959L1174.67 28.748L687.433 283.669L1177.37 35.5885L1178.27 37.6406L688.232 285.836L1180.86 44.5951L1181.66 46.6472L688.93 287.888L1184.16 53.6017L1184.95 55.6539L689.729 290.054L1187.45 62.6083L1188.15 64.7745L690.527 292.106L1190.54 71.729L1191.34 73.8951L691.326 294.158L1193.64 80.9636L1194.34 83.0157L691.924 296.324L1196.53 90.0842L1197.23 92.2504L692.623 298.491L1199.43 99.3188L1200.12 101.485L693.322 300.657L1202.22 108.667L1202.82 110.834L693.821 302.823L1204.82 117.902L1205.41 120.068L694.419 304.989L1207.41 127.251L1208.01 129.531L695.118 307.155L1209.81 136.713L1210.4 138.88L695.617 309.435L1212.2 146.062L1212.7 148.342L696.116 311.601L1214.4 155.525L1214.9 157.805L696.715 313.768L1216.59 164.987L1217.09 167.268L697.214 316.048L1218.59 174.564L1219.09 176.73L697.613 318.214L1220.58 184.141L1220.98 186.307L698.012 320.494L1222.38 193.603L1222.78 195.883L698.511 322.66L1224.18 203.294L1224.48 205.46L698.811 324.94L1225.77 212.871L1226.17 215.151L699.11 327.22L1227.27 222.447L1227.67 224.727L699.609 329.387L1228.77 232.138L1229.07 234.418L699.809 331.667L1230.07 241.829L1230.36 244.109L700.208 333.947L1231.26 251.519L1231.56 253.799L700.408 336.227L1232.36 261.21L1232.66 263.49L700.707 338.393L1233.36 271.015L1233.66 273.181L700.907 340.673L1234.26 280.705L1234.46 282.985L701.106 342.954L1235.06 290.396L1235.26 292.676L701.306 345.234L1235.75 300.201L1235.95 302.481L701.406 347.514L1236.35 310.005L1236.45 312.285L701.505 349.794L1236.85 319.81L1236.95 322.09L701.705 352.074L1237.25 329.501L1237.35 331.781L701.605 354.354L1237.55 339.305V341.585L701.805 356.634L1237.65 349.11L1237.75 351.39L701.805 358.915H1237.75V-438H540.123Z" fill="white"/>
<path d="M531.54 1158.11L529.544 1158L536.131 545.659L522.957 1157.88H520.961L534.135 545.659L514.374 1157.65L512.378 1157.54L532.139 545.774L505.891 1157.2L503.895 1157.08L530.143 545.545L497.307 1156.63L495.311 1156.51L528.147 545.545L488.724 1156.06L486.728 1155.83L526.151 545.431L480.141 1155.26L478.145 1155.03L524.155 544.975L471.658 1154.35L469.662 1154.12L522.159 544.747L463.075 1153.32L461.179 1153.09L520.163 544.633L454.592 1152.3L452.595 1151.95L518.266 544.405L446.108 1151.04L444.112 1150.7L516.27 543.835L437.625 1149.67L435.629 1149.33L514.274 543.835L429.142 1148.19L427.146 1147.85L512.278 543.265L420.658 1146.59L418.662 1146.14L510.382 542.923L412.275 1144.88L410.279 1144.43L508.386 542.581L403.792 1142.95L401.895 1142.6L506.39 542.125L395.408 1141.01L393.412 1140.55L504.493 541.669L387.025 1138.96L385.128 1138.5L502.597 540.871L378.641 1136.79L376.745 1136.22L500.601 540.643L370.357 1134.51L368.361 1133.94L498.605 540.073L362.074 1132L360.078 1131.43L496.709 539.503L353.79 1129.49L351.794 1128.92L494.812 538.705L345.506 1126.87L343.61 1126.19L492.916 538.021L337.322 1124.14L335.326 1123.45L490.92 537.679L329.039 1121.17L327.142 1120.49L489.124 536.767L320.955 1118.21L319.058 1117.52L487.128 536.083L312.771 1115.01L310.874 1114.33L485.231 535.513L304.687 1111.82L302.79 1111.02L483.435 534.601L296.602 1108.52L294.806 1107.72L481.539 533.803L288.618 1105.1L286.722 1104.18L479.642 533.005L280.634 1101.45L278.738 1100.65L477.746 532.207L272.65 1097.8L270.853 1096.89L475.95 531.295L264.765 1094.04L262.969 1093.13L474.153 530.268L256.881 1090.16L255.084 1089.13L472.257 529.47L249.096 1086.06L247.299 1085.14L470.46 528.444L241.311 1081.95L239.515 1081.04L468.664 527.532L233.626 1077.73L231.83 1076.71L466.867 526.62L225.942 1073.4L224.145 1072.38L465.171 525.366L218.257 1068.96L216.46 1067.93L463.274 524.568L210.672 1064.4L208.875 1063.37L461.578 523.428L203.086 1059.72L201.39 1058.69L459.881 522.174L195.601 1055.05L193.905 1053.91L457.985 521.262L188.216 1050.14L186.519 1049L456.388 520.008L180.83 1045.13L179.134 1043.99L454.691 518.754L173.445 1040.11L171.748 1038.86L452.995 517.614L166.159 1034.87L164.562 1033.73L451.298 516.359L158.973 1029.62L157.277 1028.37L449.601 515.219L151.787 1024.26L150.191 1023.01L447.905 513.965L144.701 1018.79L143.105 1017.42L446.208 512.711L137.715 1013.21L136.018 1011.84L444.711 511.229L130.729 1007.51L129.032 1006.14L443.014 509.975L123.743 1001.69L122.146 1000.32L441.417 508.607L116.856 995.876L115.259 994.508L439.92 507.125L110.07 989.948L108.473 988.466L438.224 505.985L103.383 983.791L101.786 982.423L436.727 504.389L96.6959 977.635L95.1988 976.267L435.13 503.021L90.1088 971.479L88.6118 969.997L433.733 501.31L83.5218 965.094L82.0247 963.612L432.136 499.942L77.1343 958.71L75.6373 957.114L430.639 498.46L70.6471 952.097L69.2499 950.615L429.042 497.092L64.3595 945.485L62.8624 944.003L427.744 495.268L58.0719 938.872L56.6746 937.276L426.247 493.786L51.9838 932.032L50.4868 930.436L424.85 492.304L45.796 925.192L44.3988 923.595L423.353 490.708L39.8078 918.237L38.4105 916.527L421.956 488.998L33.8196 911.169L32.4223 909.572L420.658 487.287L27.9312 904.1L26.6337 902.39L419.261 485.691L22.1426 896.804L20.8451 895.093L417.964 483.981L16.4538 889.507L15.0565 887.797L416.566 482.271L10.765 882.211L9.4675 880.5L415.369 480.561L5.17594 874.686L3.87849 872.976L413.971 478.851L-0.313254 867.162L-1.51089 865.451L412.774 477.027L-5.70264 859.637L-6.9003 857.813L411.476 475.317L-10.9922 851.885L-12.2897 850.174L410.279 473.493L-16.2818 844.246L-17.4795 842.422L409.181 471.554L-21.4716 836.379L-22.5695 834.555L407.883 469.844L-26.4618 828.513L-27.6594 826.689L406.686 468.02L-31.452 820.532L-32.6496 818.708L405.688 465.968L-36.3424 812.438L-37.54 810.614L404.39 464.258L-41.2327 804.343L-42.3306 802.519L403.293 462.32L-45.9235 796.249L-47.0213 794.311L402.295 460.382L-50.6143 787.926L-51.6123 786.102L401.296 458.443L-55.1054 779.717L-56.2033 777.779L400.199 456.505L-59.5966 771.281L-60.5946 769.343L399.001 454.681L-63.988 762.844L-64.986 760.906L398.103 452.629L-68.2795 754.408L-69.2775 752.47L397.204 450.577L-72.4713 745.857L-73.3695 743.919L396.206 448.639L-76.5632 737.307L-77.4614 735.254L395.208 446.701L-80.5554 728.642L-81.4536 726.59L394.31 444.649L-84.4477 719.863L-85.3459 717.811L393.412 442.596L-88.2402 711.085L-89.1385 709.033L392.514 440.544L-92.0328 702.306L-92.8312 700.254L391.616 438.492L-95.6257 693.414L-96.4241 691.361L390.917 436.326L-99.1188 684.521L-100.017 682.469L390.019 434.274L-102.612 675.514L-103.41 673.462L389.22 432.222L-105.905 666.508L-106.704 664.456L388.422 430.17L-109.199 657.501L-109.898 655.335L387.723 428.003L-112.293 648.381L-113.091 646.214L387.025 425.837L-115.387 639.146L-116.085 637.094L386.326 423.671L-118.281 630.025L-118.98 627.859L385.727 421.505L-121.175 620.791L-121.774 618.624L385.028 419.453L-123.97 611.442L-124.569 609.276L384.43 417.287L-126.565 602.207L-127.164 600.041L383.831 415.121L-129.16 592.859L-129.659 590.579L383.232 412.84L-131.555 583.396L-132.154 581.23L382.533 410.788L-133.95 574.047L-134.449 571.767L382.234 408.508L-136.146 564.585L-136.645 562.305L381.635 406.342L-138.342 555.122L-138.841 552.842L381.136 404.062L-140.338 545.545L-140.837 543.379L380.737 401.896L-142.334 535.969L-142.733 533.803L380.138 399.615L-144.13 526.506L-144.529 524.226L379.739 397.449L-145.927 516.815L-146.226 514.649L379.439 395.169L-147.524 507.239L-147.923 504.959L378.94 393.003L-149.021 497.662L-149.42 495.382L378.741 390.723L-150.518 487.972L-150.817 485.691L378.441 388.443L-151.815 478.281L-152.115 476.001L378.042 386.163L-153.013 468.59L-153.312 466.31L377.843 383.882L-154.111 458.9L-154.41 456.619L377.643 381.716L-155.109 449.095L-155.308 446.929L377.344 379.436L-156.007 439.404L-156.206 437.124L377.144 377.156L-156.805 429.714L-157.005 427.433L377.044 374.876L-157.504 419.909L-157.704 417.629L376.845 372.596L-158.103 410.104L-158.203 407.824L376.645 370.315L-158.602 400.299L-158.702 398.019L376.645 368.035L-159.001 390.609L-159.101 388.329L376.445 365.755L-159.3 380.804V378.524L376.545 363.475L-159.4 371L-159.5 368.719L376.445 361.195H-159.5V1158.11H538.127V545.887L531.54 1158.11Z" fill="white"/>
</svg>
