<svg width="50" height="51" viewBox="0 0 50 51" fill="none" xmlns="http://www.w3.org/2000/svg">
<path d="M25.0001 29.8392C27.4703 29.8392 29.4728 27.8367 29.4728 25.3665C29.4728 22.8962 27.4703 20.8937 25.0001 20.8937C22.5299 20.8937 20.5273 22.8962 20.5273 25.3665C20.5273 27.8367 22.5299 29.8392 25.0001 29.8392Z" fill="black"/>
<path d="M25 34.5301C38.2548 34.5301 49 30.4274 49 25.3665C49 20.3055 38.2548 16.2028 25 16.2028C11.7452 16.2028 1 20.3055 1 25.3665C1 30.4274 11.7452 34.5301 25 34.5301Z" stroke="black" stroke-width="2"/>
<path d="M17.0637 29.9482C23.6911 41.4273 32.6167 48.6815 36.9996 46.151C41.3825 43.6206 39.563 32.2636 32.9355 20.7846C26.3081 9.30559 17.3825 2.05135 12.9996 4.58182C8.61671 7.11229 10.4362 18.4692 17.0637 29.9482Z" stroke="black" stroke-width="2"/>
<path d="M17.0637 20.7846C10.4362 32.2636 8.61671 43.6206 12.9996 46.151C17.3825 48.6815 26.3081 41.4273 32.9355 29.9482C39.563 18.4692 41.3825 7.11229 36.9996 4.58182C32.6167 2.05135 23.6911 9.30559 17.0637 20.7846Z" stroke="black" stroke-width="2"/>
</svg>
