<svg width="38" height="22" viewBox="0 0 38 22" fill="none" xmlns="http://www.w3.org/2000/svg">
<path d="M18.8383 0C13.948 0 10.8916 2.4445 9.66894 7.33303C11.503 4.88853 13.6425 3.97219 16.0875 4.58308C17.4826 4.93164 18.4797 5.94384 19.5836 7.06381C21.3814 8.88824 23.4622 10.9998 28.0077 10.9998C32.8976 10.9998 35.9544 8.55527 37.1767 3.66628C35.3431 6.11078 33.2035 7.02758 30.7581 6.41669C29.3634 6.06813 28.3664 5.05593 27.2624 3.93596C25.4646 2.11153 23.3834 0 18.8383 0ZM9.66894 10.9998C4.77902 10.9998 1.72225 13.4443 0.5 18.3333C2.3336 15.8888 4.47311 14.972 6.91853 15.5833C8.31323 15.9323 9.31029 16.9441 10.4142 18.0636C12.212 19.888 14.2933 22 18.8383 22C23.7287 22 26.785 19.5555 28.0077 14.6665C26.1737 17.111 24.0342 18.0278 21.5892 17.4165C20.194 17.0684 19.197 16.0557 18.0931 14.9362C16.2952 13.1118 14.2144 10.9998 9.66894 10.9998Z" fill="#06B6D4"/>
</svg>
