<svg width="31" height="30" viewBox="0 0 31 30" fill="none" xmlns="http://www.w3.org/2000/svg">
<path d="M0.5 0H30.5V30H0.5V0Z" fill="#017ACB"/>
<path d="M14.9047 11.1094H16.3438V13.5938H12.4531V24.6469L12.35 24.675C12.2094 24.7125 10.3578 24.7125 9.95938 24.6703L9.64063 24.6422V13.5938H5.75V11.1094L6.98281 11.0953C7.65782 11.0859 9.39219 11.0859 10.8359 11.0953C12.2797 11.1047 14.1078 11.1094 14.9047 11.1094ZM25.8875 23.475C25.3157 24.0797 24.7016 24.4172 23.6797 24.6938C23.2344 24.8156 23.1594 24.8203 22.1563 24.8156C21.1532 24.8109 21.0735 24.8109 20.586 24.6844C19.325 24.3609 18.3078 23.7281 17.6141 22.8328C17.4172 22.5797 17.0938 22.0547 17.0938 21.9891C17.0938 21.9703 17.1406 21.9281 17.2016 21.9C17.2625 21.8719 17.3891 21.7922 17.4922 21.7313C17.5953 21.6703 17.7828 21.5578 17.9094 21.4922C18.036 21.4266 18.4016 21.2109 18.7203 21.0188C19.0391 20.8266 19.3297 20.6719 19.3625 20.6719C19.3953 20.6719 19.4563 20.7375 19.5031 20.8172C19.7844 21.2906 20.4406 21.8953 20.9047 22.1016C21.1906 22.2234 21.8235 22.3594 22.1282 22.3594C22.4094 22.3594 22.925 22.2375 23.2016 22.1109C23.4969 21.975 23.6469 21.8391 23.825 21.5672C23.9469 21.375 23.961 21.3234 23.9563 20.9578C23.9563 20.6203 23.9375 20.5266 23.8438 20.3719C23.5813 19.9406 23.225 19.7156 21.7813 19.0781C20.2906 18.4172 19.6203 18.0234 19.0766 17.4938C18.6735 17.1 18.5938 16.9922 18.3406 16.5C18.0125 15.8672 17.9703 15.6609 17.9656 14.7188C17.961 14.0578 17.975 13.8422 18.0453 13.6172C18.1438 13.2797 18.4625 12.6281 18.6078 12.4641C18.9078 12.1125 19.0156 12.0047 19.2266 11.8313C19.8641 11.3063 20.8578 10.9594 21.8094 10.9266C21.9172 10.9266 22.2735 10.9453 22.6063 10.9688C23.5625 11.0484 24.2141 11.2828 24.8422 11.7844C25.3157 12.1594 26.0328 13.0406 25.9625 13.1578C25.9157 13.2281 24.0453 14.475 23.9235 14.5125C23.8485 14.5359 23.7969 14.5078 23.6938 14.3859C23.0563 13.6219 22.7985 13.4578 22.1797 13.4203C21.7391 13.3922 21.5047 13.4438 21.2094 13.6406C20.9 13.8469 20.75 14.1609 20.75 14.5969C20.7547 15.2344 20.9985 15.5344 21.8985 15.9797C22.4797 16.2656 22.9766 16.5 23.0141 16.5C23.0703 16.5 24.275 17.1 24.5891 17.2875C26.0516 18.1453 26.6469 19.0266 26.8016 20.5453C26.9141 21.6891 26.5907 22.7344 25.8875 23.475Z" fill="white"/>
</svg>
